<?xml version="1.0" encoding="UTF-8"?>
<svg version="1.1" xmlns="http://www.w3.org/2000/svg" width="512" height="512">
<path d="M0 0 C1.19102489 -0.00679667 2.38204977 -0.01359334 3.60916632 -0.02059597 C6.91184665 -0.03630331 10.21403705 -0.03855059 13.51671994 -0.03501284 C17.07990791 -0.03440055 20.64302284 -0.05095968 24.20617676 -0.06518555 C31.18592501 -0.09010135 38.16559725 -0.0983499 45.14538626 -0.10002268 C50.81931358 -0.10144838 56.49321584 -0.10761372 62.16713524 -0.11712456 C78.25564021 -0.14354362 94.34408516 -0.15738283 110.43261198 -0.15513314 C111.73352284 -0.15495333 111.73352284 -0.15495333 113.06071472 -0.1547699 C113.92904824 -0.15464726 114.79738177 -0.15452461 115.69202843 -0.15439826 C129.76403763 -0.15317895 143.83580598 -0.18188551 157.90774552 -0.224185 C172.3585582 -0.26728039 186.80925343 -0.28799532 201.26013201 -0.28540367 C209.37248733 -0.28440787 217.48459017 -0.29264368 225.59688759 -0.32493782 C232.50411888 -0.35225859 239.41098327 -0.35877456 246.31824521 -0.33840955 C249.84146655 -0.32861589 253.36398405 -0.32843326 256.88713837 -0.3544693 C260.70950834 -0.3824256 264.53085143 -0.36373133 268.35327148 -0.34057617 C269.46271506 -0.35600686 270.57215863 -0.37143755 271.7152217 -0.38733584 C279.04979101 -0.28909223 283.06480871 1.34101805 288.36711121 6.40113831 C289.11895691 7.0530011 289.87080261 7.70486389 290.64543152 8.3764801 C291.23936707 8.9453595 291.83330261 9.51423889 292.44523621 10.10035706 C293.12489441 10.74649963 293.80455261 11.39264221 294.50480652 12.05836487 C295.20186707 12.7283551 295.89892761 13.39834534 296.61711121 14.08863831 C298.11654029 15.51501995 299.61654257 16.94079928 301.11711121 18.36598206 C301.84285339 19.05675842 302.56859558 19.74753479 303.31632996 20.45924377 C306.99300377 23.94070372 310.7363665 27.3473986 314.47648621 30.76051331 C317.61713855 33.62954166 320.74345111 36.51364389 323.86711121 39.40113831 C328.02546629 43.24360647 332.19117331 47.0777862 336.36711121 50.90113831 C340.54305034 54.72449155 344.70852156 58.55892279 348.86711121 62.40113831 C351.0334548 64.40148849 353.20019406 66.40140946 355.36711121 68.40113831 C356.1729364 69.1450885 356.1729364 69.1450885 356.99504089 69.90406799 C358.57617118 71.36276351 360.1587647 72.81984893 361.74211121 74.27613831 C362.48835754 74.96377258 362.48835754 74.96377258 363.24967957 75.66529846 C365.91810927 78.11304449 368.6323993 80.47738135 371.42961121 82.77613831 C375.33279827 86.2640927 377.19339411 88.61328428 377.70768738 93.90626526 C377.69197693 95.22070618 377.67626648 96.53514709 377.66007996 97.88941956 C377.65583511 98.59261826 377.65159027 99.29581696 377.6472168 100.02032471 C377.6305118 102.25182961 377.59287735 104.48240943 377.55461121 106.71363831 C377.53955368 108.23250541 377.52586714 109.75138676 377.51359558 111.27027893 C377.48063594 114.98086265 377.42891137 118.69091009 377.36711121 122.40113831 C381.88842345 122.29072008 386.4089436 122.16021644 390.92961121 122.02613831 C392.20642761 121.99520081 393.48324402 121.96426331 394.79875183 121.93238831 C405.67484742 121.83396376 405.67484742 121.83396376 415.17961121 117.21363831 C419.2859753 111.93402733 419.64608069 105.98054632 419.99211121 99.46363831 C420.03078308 98.77979065 420.06945496 98.09594299 420.10929871 97.39137268 C420.20233532 95.72834318 420.28574907 94.06477983 420.36711121 92.40113831 C419.47636902 92.12270081 418.58562683 91.84426331 417.66789246 91.55738831 C407.06955245 87.8448337 398.90597748 80.86179963 393.50773621 71.00660706 C387.78870351 58.87408769 385.46807109 44.32264403 389.99211121 31.27613831 C390.73387997 29.62776328 391.52523525 28.00070262 392.36711121 26.40113831 C392.77961121 25.55551331 393.19211121 24.70988831 393.61711121 23.83863831 C399.79955968 12.31680252 409.34794838 5.96125428 421.36711121 1.40113831 C432.26984445 -1.76399119 446.38686783 -0.85162137 456.36711121 4.40113831 C457.21273621 4.81363831 458.05836121 5.22613831 458.92961121 5.65113831 C470.45144699 11.83358678 476.80699523 21.38197548 481.36711121 33.40113831 C484.5322407 44.30387155 483.61987088 58.42089493 478.36711121 68.40113831 C477.95461121 69.24676331 477.54211121 70.09238831 477.11711121 70.96363831 C471.69791185 81.06305529 463.05063523 88.31263584 452.36711121 92.40113831 C451.70711121 92.40113831 451.04711121 92.40113831 450.36711121 92.40113831 C450.39329529 93.09038391 450.41947937 93.77962952 450.44645691 94.48976135 C450.99070506 110.98668076 451.38998516 124.31072626 440.16789246 137.47926331 C433.47749683 144.61955539 425.11809298 150.36871496 415.36711121 152.40113831 C412.45774706 152.48491675 409.57270601 152.51739513 406.66398621 152.49879456 C405.92100281 152.49778748 405.17801941 152.4967804 404.41252136 152.4957428 C401.64736886 152.49052606 398.88223842 152.47656481 396.11711121 152.46363831 C389.92961121 152.44301331 383.74211121 152.42238831 377.36711121 152.40113831 C377.36711121 168.57113831 377.36711121 184.74113831 377.36711121 201.40113831 C384.62711121 201.40113831 391.88711121 201.40113831 399.36711121 201.40113831 C400.02711121 199.42113831 400.68711121 197.44113831 401.36711121 195.40113831 C407.41657379 182.54603032 417.29698945 175.35999209 430.36711121 170.40113831 C441.26984445 167.23600881 455.38686783 168.14837863 465.36711121 173.40113831 C466.21273621 173.81363831 467.05836121 174.22613831 467.92961121 174.65113831 C479.45144699 180.83358678 485.80699523 190.38197548 490.36711121 202.40113831 C493.5322407 213.30387155 492.61987088 227.42089493 487.36711121 237.40113831 C486.95461121 238.24676331 486.54211121 239.09238831 486.11711121 239.96363831 C479.93466274 251.48547409 470.38627403 257.84102233 458.36711121 262.40113831 C447.46437797 265.5662678 433.34735458 264.65389798 423.36711121 259.40113831 C422.52148621 258.98863831 421.67586121 258.57613831 420.80461121 258.15113831 C410.70519423 252.73193895 403.45561367 244.08466233 399.36711121 233.40113831 C399.36711121 232.74113831 399.36711121 232.08113831 399.36711121 231.40113831 C392.10711121 231.40113831 384.84711121 231.40113831 377.36711121 231.40113831 C377.69711121 254.83113831 378.02711121 278.26113831 378.36711121 302.40113831 C383.31711121 300.75113831 388.26711121 299.10113831 393.36711121 297.40113831 C415.283775 293.01780555 436.35484566 297.06896873 455.36711121 308.40113831 C458.54801762 310.56024517 461.47318102 312.87604236 464.36711121 315.40113831 C465.33519714 316.17328674 466.30328308 316.94543518 467.30070496 317.74098206 C476.90124202 325.7549642 482.94554392 336.91109964 487.36711121 348.40113831 C487.80152527 349.51359924 488.23593933 350.62606018 488.68351746 351.77223206 C495.21335371 371.81678167 492.61043185 394.18118449 483.49211121 412.83863831 C480.6081744 418.44950867 477.48858711 423.60186 473.36711121 428.40113831 C472.87082214 429.03922424 472.37453308 429.67731018 471.86320496 430.33473206 C463.27743792 440.94798143 451.88743379 447.5169083 439.36711121 452.40113831 C438.25336121 452.83684143 437.13961121 453.27254456 435.99211121 453.72145081 C417.19544053 459.83036878 396.41950764 457.65702843 378.36711121 450.40113831 C378.36346558 451.05180267 378.35981995 451.70246704 378.35606384 452.37284851 C378.31420549 459.15412422 378.24483585 465.93472522 378.15959167 472.71559143 C378.13139188 475.24514513 378.11017248 477.77478679 378.09611511 480.30445862 C378.07467292 483.94391376 378.02801261 487.58231246 377.97648621 491.22145081 C377.97525757 492.3497934 377.97402893 493.47813599 377.97276306 494.64067078 C377.86077733 500.66427916 377.68268339 504.79742895 373.36711121 509.40113831 C369.43119892 512.26937444 366.66846801 512.77712571 361.83403111 512.78145504 C361.18847746 512.78611496 360.54292382 512.79077488 359.87780795 512.79557601 C357.71164651 512.80754012 355.54611068 512.79812563 353.37994385 512.78881836 C351.8124767 512.79299067 350.24501258 512.79846763 348.67755407 512.80513817 C344.36777644 512.81962499 340.05818951 512.81533799 335.74840128 512.80797136 C331.10141416 512.80324999 326.45446891 512.81574038 321.80749512 512.82598877 C312.70280446 512.84320227 303.59818274 512.84401151 294.49348003 512.83877587 C287.09471074 512.83473774 279.69596185 512.83617347 272.29719353 512.84152412 C271.24496604 512.84227255 270.19273856 512.84302097 269.10862539 512.84379207 C266.97116745 512.84532351 264.8337095 512.84686186 262.69625156 512.84840704 C242.64268356 512.86214127 222.58915454 512.85668787 202.53558742 512.84522182 C184.1814513 512.83528806 165.82741597 512.84823097 147.4732954 512.87215602 C128.63579091 512.89652654 109.7983334 512.90615996 90.96081346 512.89950329 C80.38155114 512.89600657 69.80236635 512.898273 59.22311592 512.91575432 C50.21737662 512.9304507 41.21176946 512.93114536 32.20603282 512.91368341 C27.60984219 512.90514993 23.01388787 512.90308094 18.41770935 512.91833496 C14.21142832 512.93212234 10.00558737 512.9274961 5.79933219 512.90809572 C4.27650607 512.90431704 2.75364519 512.90731121 1.23084987 512.91770738 C-0.83795467 512.93082845 -2.90522927 512.91934053 -4.97396755 512.90170956 C-6.12332867 512.90160222 -7.27268979 512.90149488 -8.45688003 512.90138429 C-13.35375627 512.13008835 -16.34765293 509.94962281 -19.484119 506.17072958 C-21.02152093 502.4641776 -21.04739252 499.03372695 -21.01320553 495.08767796 C-21.02019541 493.83063559 -21.02019541 493.83063559 -21.02732649 492.54819843 C-21.03932045 489.72733787 -21.02986412 486.90695506 -21.02056885 484.08609009 C-21.02473983 482.04839659 -21.03021605 480.01070542 -21.03688866 477.97301859 C-21.05139279 472.36347554 -21.04708305 466.75407879 -21.03972185 461.14452755 C-21.03500475 455.09875857 -21.04748706 449.05302191 -21.05773926 443.00726318 C-21.0739651 431.84458111 -21.07636664 420.68194456 -21.07143427 409.51925692 C-21.06687983 399.20698924 -21.06747285 388.89473897 -21.07327461 378.58247185 C-21.07403147 377.20002875 -21.07478745 375.81758566 -21.07554256 374.43514256 C-21.07668773 372.35201137 -21.07783761 370.26888018 -21.0790018 368.185749 C-21.08970931 348.81468095 -21.09442946 329.4436187 -21.08653164 310.07254887 C-21.08623447 309.34209729 -21.08593729 308.61164571 -21.08563111 307.85905924 C-21.08318209 301.92700276 -21.08057055 295.99494635 -21.07794698 290.06288995 C-21.06784365 266.92146146 -21.07620055 243.78010551 -21.09944153 220.63868713 C-21.1255024 194.64731386 -21.13836523 168.65598428 -21.13125378 142.66459745 C-21.1305377 139.89427182 -21.12986331 137.12394618 -21.12921333 134.35362053 C-21.12904352 133.67148123 -21.12887371 132.98934193 -21.12869876 132.28653175 C-21.12639394 121.98083071 -21.13438148 111.67517018 -21.14750481 101.36947823 C-21.16239935 89.65186173 -21.16290632 77.93432398 -21.1454339 66.21670372 C-21.13689388 60.23524998 -21.13484743 54.25397791 -21.15008545 48.27253342 C-21.16385321 42.80059889 -21.15927177 37.32900303 -21.13984621 31.8570885 C-21.13606149 29.87396903 -21.13907867 27.89082293 -21.14945786 25.90772701 C-21.16253707 23.21821908 -21.15112584 20.52989581 -21.13346004 17.8404398 C-21.14311056 17.06508447 -21.15276107 16.28972914 -21.16270402 15.49087819 C-21.09258804 10.31501443 -19.87329988 7.40406063 -16.63288879 3.40113831 C-11.96386528 -0.86855942 -5.96327954 -0.02482157 0 0 Z M420.92961121 38.52613831 C418.42928331 43.57008983 418.31515048 49.12698834 420.02726746 54.45582581 C421.91223453 58.25840009 424.50984943 60.85601498 428.31242371 62.74098206 C433.64126117 64.45309904 439.19815969 64.33896621 444.24211121 61.83863831 C448.60775076 58.43343945 450.90087027 55.39084824 451.74601746 49.97145081 C452.03028606 43.93762045 451.08782074 40.17127874 447.36711121 35.40113831 C442.59697078 31.68042877 438.83062906 30.73796345 432.79679871 31.02223206 C427.37740128 31.86737924 424.33481006 34.16049875 420.92961121 38.52613831 Z M429.92961121 207.52613831 C427.42928331 212.57008983 427.31515048 218.12698834 429.02726746 223.45582581 C430.91223453 227.25840009 433.50984943 229.85601498 437.31242371 231.74098206 C442.64126117 233.45309904 448.19815969 233.33896621 453.24211121 230.83863831 C457.60775076 227.43343945 459.90087027 224.39084824 460.74601746 218.97145081 C461.03028606 212.93762045 460.08782074 209.17127874 456.36711121 204.40113831 C451.59697078 200.68042877 447.83062906 199.73796345 441.79679871 200.02223206 C436.37740128 200.86737924 433.33481006 203.16049875 429.92961121 207.52613831 Z " fill="#F1F1FB" transform="translate(20.632888793945313,-0.4011383056640625)"/>
<path d="M0 0 C24.9975 -0.185625 24.9975 -0.185625 50.5 -0.375 C55.75228516 -0.42962402 61.00457031 -0.48424805 66.41601562 -0.54052734 C72.85449219 -0.56762695 72.85449219 -0.56762695 75.87341309 -0.57266235 C77.97147262 -0.58184585 80.06950144 -0.60288662 82.1673584 -0.63345337 C85.35496596 -0.67755644 88.54064741 -0.68343049 91.72851562 -0.68115234 C92.65530373 -0.70274099 93.58209183 -0.72432964 94.53696442 -0.74657249 C101.35803534 -0.68158319 105.02848255 1.42934105 110 6 C110.7518457 6.65186279 111.50369141 7.30372559 112.27832031 7.9753418 C112.87225586 8.54422119 113.46619141 9.11310059 114.078125 9.69921875 C114.7577832 10.34536133 115.43744141 10.99150391 116.13769531 11.65722656 C116.83475586 12.3272168 117.53181641 12.99720703 118.25 13.6875 C119.74942908 15.11388165 121.24943136 16.53966098 122.75 17.96484375 C123.47574219 18.65562012 124.20148438 19.34639648 124.94921875 20.05810547 C128.62589256 23.53956541 132.36925529 26.94626029 136.109375 30.359375 C139.25002734 33.22840335 142.3763399 36.11250558 145.5 39 C149.65835508 42.84246817 153.82406211 46.67664789 158 50.5 C162.17593914 54.32335325 166.34141035 58.15778448 170.5 62 C172.66634359 64.00035019 174.83308285 66.00027115 177 68 C177.5372168 68.4959668 178.07443359 68.99193359 178.62792969 69.50292969 C180.20905998 70.9616252 181.79165349 72.41871062 183.375 73.875 C184.12124634 74.56263428 184.12124634 74.56263428 184.88256836 75.26416016 C187.55099807 77.71190619 190.2652881 80.07624305 193.0625 82.375 C196.96568706 85.8629544 198.8262829 88.21214598 199.34057617 93.50512695 C199.32486572 94.81956787 199.30915527 96.13400879 199.29296875 97.48828125 C199.28872391 98.19147995 199.28447906 98.89467865 199.28010559 99.6191864 C199.2634006 101.85069131 199.22576614 104.08127113 199.1875 106.3125 C199.17244248 107.8313671 199.15875594 109.35024846 199.14648438 110.86914062 C199.11352473 114.57972434 199.06180016 118.28977178 199 122 C203.52131225 121.88958177 208.04183239 121.75907813 212.5625 121.625 C213.83931641 121.5940625 215.11613281 121.563125 216.43164062 121.53125 C227.30773622 121.43282545 227.30773622 121.43282545 236.8125 116.8125 C240.9188641 111.53288902 241.27896949 105.57940801 241.625 99.0625 C241.66367187 98.37865234 241.70234375 97.69480469 241.7421875 96.99023438 C241.83522412 95.32720487 241.91863787 93.66364153 242 92 C241.10925781 91.7215625 240.21851563 91.443125 239.30078125 91.15625 C228.70244124 87.44369539 220.53886627 80.46066133 215.140625 70.60546875 C209.4215923 58.47294939 207.10095988 43.92150573 211.625 30.875 C212.36676876 29.22662498 213.15812405 27.59956431 214 26 C214.4125 25.154375 214.825 24.30875 215.25 23.4375 C221.43244847 11.91566422 230.98083718 5.56011598 243 1 C253.90273324 -2.1651295 268.01975663 -1.25275967 278 4 C278.845625 4.4125 279.69125 4.825 280.5625 5.25 C292.08433578 11.43244847 298.43988402 20.98083718 303 33 C306.1651295 43.90273324 305.25275967 58.01975663 300 68 C299.5875 68.845625 299.175 69.69125 298.75 70.5625 C293.33080064 80.66191698 284.68352403 87.91149754 274 92 C273.34 92 272.68 92 272 92 C272.02618408 92.68924561 272.05236816 93.37849121 272.0793457 94.08862305 C272.62359386 110.58554245 273.02287395 123.90958795 261.80078125 137.078125 C255.11038562 144.21841708 246.75098177 149.96757665 237 152 C234.09063585 152.08377844 231.2055948 152.11625682 228.296875 152.09765625 C227.5538916 152.09664917 226.8109082 152.09564209 226.04541016 152.09460449 C223.28025765 152.08938776 220.51512721 152.0754265 217.75 152.0625 C211.5625 152.041875 205.375 152.02125 199 152 C199 168.17 199 184.34 199 201 C206.26 201 213.52 201 221 201 C221.66 199.02 222.32 197.04 223 195 C229.04946258 182.14489202 238.92987824 174.95885378 252 170 C262.90273324 166.8348705 277.01975663 167.74724033 287 173 C287.845625 173.4125 288.69125 173.825 289.5625 174.25 C301.08433578 180.43244847 307.43988402 189.98083718 312 202 C315.1651295 212.90273324 314.25275967 227.01975663 309 237 C308.5875 237.845625 308.175 238.69125 307.75 239.5625 C301.56755153 251.08433578 292.01916282 257.43988402 280 262 C269.09726676 265.1651295 254.98024337 264.25275967 245 259 C244.154375 258.5875 243.30875 258.175 242.4375 257.75 C232.33808302 252.33080064 225.08850246 243.68352403 221 233 C221 232.34 221 231.68 221 231 C213.74 231 206.48 231 199 231 C199.33 254.43 199.66 277.86 200 302 C204.95 300.35 209.9 298.7 215 297 C236.9166638 292.61666724 257.98773445 296.66783042 277 308 C280.18090641 310.15910687 283.10606981 312.47490405 286 315 C286.96808594 315.77214844 287.93617188 316.54429687 288.93359375 317.33984375 C298.53413081 325.35382589 304.57843272 336.50996134 309 348 C309.43441406 349.11246094 309.86882812 350.22492188 310.31640625 351.37109375 C316.8462425 371.41564336 314.24332064 393.78004618 305.125 412.4375 C302.24106319 418.04837037 299.1214759 423.2007217 295 428 C294.50371094 428.63808594 294.00742187 429.27617187 293.49609375 429.93359375 C284.91032671 440.54684313 273.52032259 447.11576999 261 452 C259.88625 452.43570312 258.7725 452.87140625 257.625 453.3203125 C238.17377336 459.64196116 215.8467465 457.5023521 197.625 448.6875 C191.88302212 445.65180866 186.89944857 442.2443434 182 438 C180.89591797 437.11054687 180.89591797 437.11054687 179.76953125 436.203125 C171.25401 429.10930007 164.35189254 420.21748682 160 410 C160 409.34 160 408.68 160 408 C156.66519334 408.02305791 153.33370869 408.10070785 150 408.1875 C149.06542969 408.19330078 148.13085938 408.19910156 147.16796875 408.20507812 C137.15087215 408.52030144 131.49863716 413.26852613 124.25 419.6875 C118.20944584 425.01365607 114.59744027 427.51081239 106.44921875 427.30859375 C102.76344052 426.84419745 100.84232682 425.35852651 98 423 C96.4196742 421.76696897 94.83614181 420.53804041 93.25 419.3125 C92.49203125 418.71050781 91.7340625 418.10851562 90.953125 417.48828125 C86.62661797 414.19148289 82.27430351 414.42031649 77 415 C73.99634828 416.56189889 71.73580321 418.32810843 69.24609375 420.6015625 C64.44544667 424.69423536 61.00491863 425.65693477 54.7109375 425.6015625 C47.82314333 424.07314708 43.43052668 418.56461201 38.875 413.5625 C38.224104 412.85746338 37.57320801 412.15242676 36.90258789 411.42602539 C35.5716497 409.98332283 34.24326645 408.53825898 32.91748047 407.09082031 C31.14173066 405.15454308 29.35668709 403.22752352 27.56640625 401.3046875 C11.61397212 384.15795349 11.61397212 384.15795349 11.71484375 375.28125 C12.37239939 370.02080491 16.27461425 366.45928677 20 363 C19.34805664 361.93072266 18.69611328 360.86144531 18.02441406 359.75976562 C15.26562479 354.21055726 15.4947249 348.93105523 15.609375 342.84375 C15.61503479 341.70087524 15.62069458 340.55800049 15.62652588 339.38049316 C15.64880152 335.75322448 15.69898375 332.12696691 15.75 328.5 C15.77007629 326.03126433 15.78832507 323.56251308 15.8046875 321.09375 C15.84863748 315.06215876 15.91546189 309.03115164 16 303 C14.0082194 302.79451497 12.0164388 302.58902995 10.0246582 302.38354492 C6.82653977 301.77770336 5.20627661 300.33234956 3 298 C-0.9022341 292.25349082 -0.38461329 286.49865148 -0.29296875 279.8203125 C-0.28872391 278.6524118 -0.28447906 277.48451111 -0.28010559 276.28121948 C-0.263354 272.56224214 -0.22570698 268.84381273 -0.1875 265.125 C-0.17244867 262.59896618 -0.15876105 260.07292383 -0.14648438 257.546875 C-0.11346192 251.36439735 -0.06329691 245.18223783 0 239 C-1.09779785 239.01369629 -2.1955957 239.02739258 -3.32666016 239.04150391 C-12.22958112 238.94091262 -20.1298986 234.36808303 -27 229 C-27.61617187 228.52175781 -28.23234375 228.04351562 -28.8671875 227.55078125 C-36.42014837 220.88739133 -40.85904711 210.84275025 -42 201 C-42.25607211 196.2515401 -42.27644318 191.50469312 -42.3125 186.75 C-42.34150391 185.49058594 -42.37050781 184.23117188 -42.40039062 182.93359375 C-42.48211754 170.82543746 -39.45843122 161.5453402 -32 152 C-31.52175781 151.38382813 -31.04351562 150.76765625 -30.55078125 150.1328125 C-25.13431825 143.99324487 -15.22883347 138.24630876 -7 137 C-4.69 137 -2.38 137 0 137 C0 91.79 0 46.58 0 0 Z M242.5625 38.125 C240.0621721 43.16895152 239.94803927 48.72585003 241.66015625 54.0546875 C243.54512333 57.85726178 246.14273822 60.45487667 249.9453125 62.33984375 C255.27414997 64.05196073 260.83104848 63.9378279 265.875 61.4375 C270.24063955 58.03230115 272.53375906 54.98970993 273.37890625 49.5703125 C273.66317485 43.53648215 272.72070953 39.77014043 269 35 C264.22985957 31.27929047 260.46351785 30.33682515 254.4296875 30.62109375 C249.01029007 31.46624094 245.96769885 33.75936045 242.5625 38.125 Z M251.5625 207.125 C249.0621721 212.16895152 248.94803927 217.72585003 250.66015625 223.0546875 C252.54512333 226.85726178 255.14273822 229.45487667 258.9453125 231.33984375 C264.27414997 233.05196073 269.83104848 232.9378279 274.875 230.4375 C279.24063955 227.03230115 281.53375906 223.98970993 282.37890625 218.5703125 C282.66317485 212.53648215 281.72070953 208.77014043 278 204 C273.22985957 200.27929047 269.46351785 199.33682515 263.4296875 199.62109375 C258.01029007 200.46624094 254.96769885 202.75936045 251.5625 207.125 Z " fill="#D5D5F1" transform="translate(199,0)"/>
<path d="M0 0 C2.13455186 1.64030999 4.1751786 3.33207986 6.203125 5.1015625 C7.17121094 5.87371094 8.13929688 6.64585937 9.13671875 7.44140625 C18.73725581 15.45538839 24.78155772 26.61152384 29.203125 38.1015625 C29.63753906 39.21402344 30.07195312 40.32648438 30.51953125 41.47265625 C37.0493675 61.51720586 34.44644564 83.88160868 25.328125 102.5390625 C22.44418819 108.14993287 19.3246009 113.3022842 15.203125 118.1015625 C14.45869141 119.05869141 14.45869141 119.05869141 13.69921875 120.03515625 C5.11345171 130.64840563 -6.27655241 137.21733249 -18.796875 142.1015625 C-19.910625 142.53726563 -21.024375 142.97296875 -22.171875 143.421875 C-41.62310164 149.74352366 -63.9501285 147.6039146 -82.171875 138.7890625 C-87.91385288 135.75337116 -92.89742643 132.3459059 -97.796875 128.1015625 C-98.53292969 127.50859375 -99.26898438 126.915625 -100.02734375 126.3046875 C-108.542865 119.21086257 -115.44498246 110.31904932 -119.796875 100.1015625 C-119.796875 99.4415625 -119.796875 98.7815625 -119.796875 98.1015625 C-123.13168166 98.12462041 -126.46316631 98.20227035 -129.796875 98.2890625 C-130.73144531 98.29486328 -131.66601562 98.30066406 -132.62890625 98.30664062 C-142.64600285 98.62186394 -148.29823784 103.37008863 -155.546875 109.7890625 C-161.58742916 115.11521857 -165.19943473 117.61237489 -173.34765625 117.41015625 C-177.03343448 116.94575995 -178.95454818 115.46008901 -181.796875 113.1015625 C-183.3772008 111.86853147 -184.96073319 110.63960291 -186.546875 109.4140625 C-187.30484375 108.81207031 -188.0628125 108.21007812 -188.84375 107.58984375 C-193.17025703 104.29304539 -197.52257149 104.52187899 -202.796875 105.1015625 C-205.80052672 106.66346139 -208.06107179 108.42967093 -210.55078125 110.703125 C-215.35142833 114.79579786 -218.79195637 115.75849727 -225.0859375 115.703125 C-231.97373167 114.17470958 -236.36634832 108.66617451 -240.921875 103.6640625 C-241.572771 102.95902588 -242.22366699 102.25398926 -242.89428711 101.52758789 C-244.2252253 100.08488533 -245.55360855 98.63982148 -246.87939453 97.19238281 C-248.65514434 95.25610558 -250.44018791 93.32908602 -252.23046875 91.40625 C-267.88659441 74.57800799 -267.88659441 74.57800799 -268.109375 67.7890625 C-268.14675781 67.05042969 -268.18414062 66.31179688 -268.22265625 65.55078125 C-267.16485843 59.46601762 -262.43839884 55.57085688 -257.859375 51.8515625 C-257.29742432 51.3862915 -256.73547363 50.92102051 -256.15649414 50.44165039 C-235.97279775 33.8456684 -235.97279775 33.8456684 -228.98797607 33.86105347 C-228.02326385 33.85830414 -227.05855164 33.85555481 -226.06460571 33.85272217 C-224.48720108 33.863508 -224.48720108 33.863508 -222.87792969 33.87451172 C-221.76543854 33.87421967 -220.65294739 33.87392761 -219.50674438 33.87362671 C-215.82733375 33.87502073 -212.14812529 33.89058557 -208.46875 33.90625 C-205.91855988 33.90997987 -203.36836833 33.91282696 -200.81817627 33.91482544 C-194.79047129 33.92168309 -188.76285317 33.93744815 -182.735183 33.95752442 C-175.87186952 33.97988723 -169.00855255 33.99087781 -162.1452117 34.00091529 C-148.02905926 34.02181452 -133.91297111 34.05698811 -119.796875 34.1015625 C-119.35444458 32.70719971 -119.35444458 32.70719971 -118.90307617 31.28466797 C-112.56063514 13.0342274 -94.5355774 -0.64279448 -77.796875 -8.8984375 C-51.87192246 -18.92679321 -22.91855235 -15.55644755 0 0 Z " fill="#FE9F40" transform="translate(478.796875,309.8984375)"/>
<path d="M0 0 C0.99 1.32 1.98 2.64 3 4 C5.84496155 7.41395386 7.88070094 9.19202534 12.17578125 10.1484375 C13.43777344 10.42945313 14.69976562 10.71046875 16 11 C16.00364563 11.63147446 16.00729126 12.26294891 16.01104736 12.91355896 C16.05302617 19.51687745 16.12247918 26.11951081 16.20751953 32.72241211 C16.2356548 35.18295421 16.25690614 37.64358544 16.27099609 40.10424805 C16.29252802 43.65199165 16.33923373 47.19867195 16.390625 50.74609375 C16.39185364 51.8370787 16.39308228 52.92806366 16.39434814 54.05210876 C16.52390678 60.88791491 17.671781 66.00331567 21 72 C19.50260417 73.171875 18.00520833 74.34375 16.5078125 75.515625 C13.58383071 78.3941563 12.69678925 81.27076511 12.625 85.3125 C12.9361197 94.42386275 19.14930295 99.37283639 25.27734375 105.3203125 C27.41784907 107.42703653 29.42458799 109.5345752 31.375 111.8125 C34.73996783 115.73420217 38.19734933 119.56479817 41.6875 123.375 C42.24679199 123.99479736 42.80608398 124.61459473 43.38232422 125.25317383 C43.92002441 125.83736084 44.45772461 126.42154785 45.01171875 127.0234375 C45.49084717 127.54856934 45.96997559 128.07370117 46.46362305 128.61474609 C50.59977549 132.34405309 54.8122734 132.53895169 60.18359375 132.453125 C64.83206409 131.7052435 67.6061618 129.09905047 71 126 C75.57414151 122.22136136 78.81468118 121.35283922 84.62109375 121.62109375 C88.23176762 122.19619287 90.19876009 123.67556688 93 126 C94.5803258 127.23303103 96.16385819 128.46195959 97.75 129.6875 C98.50796875 130.28949219 99.2659375 130.89148438 100.046875 131.51171875 C103.07180536 133.81671569 104.98814183 134.20420408 108.75 134.3125 C109.59046875 134.34988281 110.4309375 134.38726562 111.296875 134.42578125 C117.93442034 133.38027194 123.24926881 127.32146224 128.14453125 122.97851562 C135.22858298 116.83280488 140.59920401 115.56740783 149.875 115.8125 C150.84953125 115.82603516 151.8240625 115.83957031 152.828125 115.85351562 C155.21932863 115.88868038 157.60936975 115.9378933 160 116 C160.37769531 116.78761719 160.75539063 117.57523437 161.14453125 118.38671875 C168.64575174 133.23105438 178.98133708 145.28217671 193.8125 153.22265625 C194.78832031 153.74738525 195.76414062 154.27211426 196.76953125 154.81274414 C197.50558594 155.20453857 198.24164063 155.59633301 199 156 C199.10151824 163.72286742 199.17151568 171.44556239 199.21972656 179.16894531 C199.23982715 181.79563833 199.26711204 184.42228669 199.30175781 187.04882812 C199.35034164 190.82693512 199.37298509 194.60444984 199.390625 198.3828125 C199.41127014 199.55490265 199.43191528 200.7269928 199.45318604 201.93460083 C199.45486989 208.06917863 199.45198608 212.33235006 195 217 C190.83680759 220.14448251 187.23780192 220.42169621 182.18559265 220.36076355 C181.40732117 220.3633316 180.62904968 220.36589966 179.82719421 220.36854553 C177.21490784 220.37350545 174.60320031 220.35695078 171.9909668 220.34057617 C170.08801956 220.33965708 168.1850713 220.3400578 166.28212452 220.34167194 C161.18553677 220.3423493 156.08916027 220.32496029 150.99262238 220.30384064 C146.21044752 220.28675737 141.42832408 220.28595137 136.64611816 220.28381348 C122.65988412 220.26807072 108.6736894 220.22618727 94.6875 220.1875 C63.440625 220.125625 32.19375 220.06375 0 220 C0 147.4 0 74.8 0 0 Z " fill="#D6D5F1" transform="translate(199,292)"/>
<path d="M0 0 C2.13455186 1.64030999 4.1751786 3.33207986 6.203125 5.1015625 C7.17121094 5.87371094 8.13929688 6.64585937 9.13671875 7.44140625 C22.26822494 18.40284054 30.59694538 36.42848793 33.203125 53.1015625 C33.203125 57.3915625 33.203125 61.6815625 33.203125 66.1015625 C19.343125 66.1015625 5.483125 66.1015625 -8.796875 66.1015625 C-10.776875 61.1515625 -10.776875 61.1515625 -12.796875 56.1015625 C-17.81138589 52.64894844 -21.63195374 51.20484668 -27.796875 52.1015625 C-31.63032509 53.31529379 -31.63032509 53.31529379 -34.796875 56.1015625 C-36.116875 59.4015625 -37.436875 62.7015625 -38.796875 66.1015625 C-114.366875 66.1015625 -189.936875 66.1015625 -267.796875 66.1015625 C-265.08716643 52.55301963 -246.57132593 42.5638674 -235.796875 35.1015625 C-233.39408525 33.90016762 -231.91162133 33.97835948 -229.22848511 33.98130798 C-228.26652222 33.97993332 -227.30455933 33.97855865 -226.31344604 33.97714233 C-225.2546524 33.98073761 -224.19585876 33.98433289 -223.10498047 33.98803711 C-221.43668182 33.98781807 -221.43668182 33.98781807 -219.73468018 33.9875946 C-216.0444547 33.9882934 -212.3542792 33.99608426 -208.6640625 34.00390625 C-206.11101306 34.00577055 -203.55796326 34.0071944 -201.00491333 34.00819397 C-194.96300584 34.01162697 -188.92111992 34.01951503 -182.87922108 34.02954346 C-176.00143624 34.04071205 -169.12365055 34.04621693 -162.24585891 34.05123889 C-148.0961876 34.06169784 -133.94653229 34.07929264 -119.796875 34.1015625 C-119.35444458 32.70719971 -119.35444458 32.70719971 -118.90307617 31.28466797 C-112.56063514 13.0342274 -94.5355774 -0.64279448 -77.796875 -8.8984375 C-51.87192246 -18.92679321 -22.91855235 -15.55644755 0 0 Z " fill="#FEBE40" transform="translate(478.796875,309.8984375)"/>
<path d="M0 0 C1.2684375 0.61875 1.2684375 0.61875 2.5625 1.25 C14.08433578 7.43244847 20.43988402 16.98083718 25 29 C28.1651295 39.90273324 27.25275967 54.01975663 22 64 C21.5875 64.845625 21.175 65.69125 20.75 66.5625 C15.33080064 76.66191698 6.68352403 83.91149754 -4 88 C-4.66 88 -5.32 88 -6 88 C-5.97381592 88.68924561 -5.94763184 89.37849121 -5.9206543 90.08862305 C-5.37640614 106.58554245 -4.97712605 119.90958795 -16.19921875 133.078125 C-22.88961438 140.21841708 -31.24901823 145.96757665 -41 148 C-43.90959378 148.08378506 -46.79421241 148.11617895 -49.703125 148.09765625 C-50.95980988 148.09553383 -50.95980988 148.09553383 -52.24188232 148.09336853 C-54.91129157 148.08778197 -57.5806162 148.07523194 -60.25 148.0625 C-62.06249879 148.05748326 -63.87499889 148.05292066 -65.6875 148.04882812 C-70.12505864 148.03866888 -74.56243486 148.01909086 -79 148 C-79 138.1 -79 128.2 -79 118 C-65.4375 117.625 -65.4375 117.625 -61.20092773 117.52197266 C-50.51568764 117.39198065 -50.51568764 117.39198065 -41.1875 112.8125 C-37.0811359 107.53288902 -36.72103051 101.57940801 -36.375 95.0625 C-36.31699219 94.03672852 -36.31699219 94.03672852 -36.2578125 92.99023438 C-36.16477588 91.32720487 -36.08136213 89.66364153 -36 88 C-36.89074219 87.7215625 -37.78148437 87.443125 -38.69921875 87.15625 C-49.29755876 83.44369539 -57.46113373 76.46066133 -62.859375 66.60546875 C-68.5784077 54.47294939 -70.89904012 39.92150573 -66.375 26.875 C-65.63323124 25.22662498 -64.84187595 23.59956431 -64 22 C-63.38125 20.7315625 -63.38125 20.7315625 -62.75 19.4375 C-56.56755153 7.91566422 -47.01916282 1.56011598 -35 -3 C-24.09726676 -6.1651295 -9.98024337 -5.25275967 0 0 Z M-35.4375 34.125 C-37.9378279 39.16895152 -38.05196073 44.72585003 -36.33984375 50.0546875 C-34.45487667 53.85726178 -31.85726178 56.45487667 -28.0546875 58.33984375 C-22.72585003 60.05196073 -17.16895152 59.9378279 -12.125 57.4375 C-7.75936045 54.03230115 -5.46624094 50.98970993 -4.62109375 45.5703125 C-4.33682515 39.53648215 -5.27929047 35.77014043 -9 31 C-13.77014043 27.27929047 -17.53648215 26.33682515 -23.5703125 26.62109375 C-28.98970993 27.46624094 -32.03230115 29.75936045 -35.4375 34.125 Z " fill="#46558C" transform="translate(477,4)"/>
<path d="M0 0 C9.45084172 7.78765011 16.62806383 16.71679335 18.5625 29.0625 C18.85345156 33.47952831 18.93415503 37.8819676 18.93310547 42.30639648 C18.93746965 44.36071329 18.97385136 46.41285971 19.01171875 48.46679688 C19.12145696 61.32644577 15.84278774 72.13808018 7.125 81.75 C6.279375 82.513125 5.43375 83.27625 4.5625 84.0625 C3.634375 84.908125 2.70625 85.75375 1.75 86.625 C-8.08689898 94.64585609 -20.09418735 96.30584552 -32.4375 95.0625 C-39.99734201 93.4218931 -46.38113398 89.79475558 -52.4375 85.0625 C-53.05367187 84.58425781 -53.66984375 84.10601562 -54.3046875 83.61328125 C-61.85764837 76.94989133 -66.29654711 66.90525025 -67.4375 57.0625 C-67.69357211 52.3140401 -67.71394318 47.56719312 -67.75 42.8125 C-67.79350586 40.92337891 -67.79350586 40.92337891 -67.83789062 38.99609375 C-67.91961754 26.88793746 -64.89593122 17.6078402 -57.4375 8.0625 C-56.95925781 7.44632813 -56.48101562 6.83015625 -55.98828125 6.1953125 C-42.36563517 -9.24597399 -16.57530188 -11.94532929 0 0 Z " fill="#6AA7FE" transform="translate(224.4375,143.9375)"/>
<path d="M0 0 C8.41080994 6.3504875 14.97007673 16.55312421 17 27 C17.23089253 31.72611793 17.18517052 36.45632524 17.1875 41.1875 C17.19974609 42.47720703 17.21199219 43.76691406 17.22460938 45.09570312 C17.24609077 59.10873351 14.7779631 71.12411203 5 81.8125 C-5.12041388 91.22963088 -17.04671692 94.41780911 -30.65625 94.27734375 C-39.55543446 93.53921046 -47.06193305 89.4211892 -54 84 C-54.61617187 83.52175781 -55.23234375 83.04351562 -55.8671875 82.55078125 C-63.42014837 75.88739133 -67.85904711 65.84275025 -69 56 C-69.25607211 51.2515401 -69.27644318 46.50469312 -69.3125 41.75 C-69.35600586 39.86087891 -69.35600586 39.86087891 -69.40039062 37.93359375 C-69.48923818 24.77048653 -65.79766751 14.28748187 -56.77734375 4.6171875 C-40.38026085 -11.13024869 -18.94754777 -11.71256958 0 0 Z " fill="#01E4EF" transform="translate(154,273)"/>
<path d="M0 0 C1.2684375 0.61875 1.2684375 0.61875 2.5625 1.25 C14.08433578 7.43244847 20.43988402 16.98083718 25 29 C28.1651295 39.90273324 27.25275967 54.01975663 22 64 C21.5875 64.845625 21.175 65.69125 20.75 66.5625 C14.56755153 78.08433578 5.01916282 84.43988402 -7 89 C-17.90273324 92.1651295 -32.01975663 91.25275967 -42 86 C-42.845625 85.5875 -43.69125 85.175 -44.5625 84.75 C-54.66191698 79.33080064 -61.91149754 70.68352403 -66 60 C-66 59.34 -66 58.68 -66 58 C-73.26 58 -80.52 58 -88 58 C-88 48.1 -88 38.2 -88 28 C-80.74 28 -73.48 28 -66 28 C-65.34 26.02 -64.68 24.04 -64 22 C-57.95053742 9.14489202 -48.07012176 1.95885378 -35 -3 C-24.09726676 -6.1651295 -9.98024337 -5.25275967 0 0 Z M-35.4375 34.125 C-37.9378279 39.16895152 -38.05196073 44.72585003 -36.33984375 50.0546875 C-34.45487667 53.85726178 -31.85726178 56.45487667 -28.0546875 58.33984375 C-22.72585003 60.05196073 -17.16895152 59.9378279 -12.125 57.4375 C-7.75936045 54.03230115 -5.46624094 50.98970993 -4.62109375 45.5703125 C-4.33682515 39.53648215 -5.27929047 35.77014043 -9 31 C-13.77014043 27.27929047 -17.53648215 26.33682515 -23.5703125 26.62109375 C-28.98970993 27.46624094 -32.03230115 29.75936045 -35.4375 34.125 Z " fill="#46558C" transform="translate(486,173)"/>
<path d="M0 0 C6.5832012 -0.14930662 6.5832012 -0.14930662 9.859375 2.51953125 C10.87741211 3.34445068 10.87741211 3.34445068 11.91601562 4.18603516 C15.45095489 7.26295628 18.87143566 10.44014204 22.25 13.6875 C23.74942908 15.11388165 25.24943136 16.53966098 26.75 17.96484375 C27.47574219 18.65562012 28.20148438 19.34639648 28.94921875 20.05810547 C32.62589256 23.53956541 36.36925529 26.94626029 40.109375 30.359375 C43.25002734 33.22840335 46.3763399 36.11250558 49.5 39 C53.65835508 42.84246817 57.82406211 46.67664789 62 50.5 C66.17593914 54.32335325 70.34141035 58.15778448 74.5 62 C76.66634359 64.00035019 78.83308285 66.00027115 81 68 C81.5372168 68.4959668 82.07443359 68.99193359 82.62792969 69.50292969 C84.20905998 70.9616252 85.79165349 72.41871062 87.375 73.875 C88.12124634 74.56263428 88.12124634 74.56263428 88.88256836 75.26416016 C91.55099807 77.71190619 94.2652881 80.07624305 97.0625 82.375 C99.83755624 84.85483749 101.55176629 86.59239128 103 90 C103.0420699 91.99955748 103.04669057 94.00054508 103 96 C91.12565204 96.09276136 79.25139058 96.16379637 67.37675381 96.20724869 C61.86261109 96.22810575 56.34871664 96.25638939 50.8347168 96.30175781 C45.51141488 96.34528211 40.18835148 96.36915126 34.86488533 96.37950897 C32.83593047 96.38688848 30.80698837 96.40129899 28.7781353 96.42292023 C25.93180204 96.45204147 23.08644897 96.45595233 20.23999023 96.45410156 C19.40488922 96.46848267 18.56978821 96.48286377 17.7093811 96.49768066 C12.33113783 96.45994661 8.06815699 95.7276243 4 92 C0.1181061 86.81162148 -0.57413488 81.69672997 -0.45410156 75.38085938 C-0.45468567 74.56039124 -0.45526978 73.7399231 -0.45587158 72.89459229 C-0.45310781 70.21053212 -0.42209831 67.52761365 -0.390625 64.84375 C-0.3831565 62.97188931 -0.37746645 61.10002075 -0.37347412 59.22814941 C-0.3582657 54.32236817 -0.31902558 49.41706723 -0.2746582 44.51147461 C-0.23360172 39.49729915 -0.21544101 34.48304542 -0.1953125 29.46875 C-0.15252636 19.64562332 -0.08433356 9.82285174 0 0 Z " fill="#BFBFEF" transform="translate(295,0)"/>
<path d="M0 0 C0.62519531 0.30808594 1.25039063 0.61617187 1.89453125 0.93359375 C2.52746094 1.22363281 3.16039062 1.51367188 3.8125 1.8125 C7.84033836 5.12612372 9.54113039 9.13415852 10.21496582 14.15818787 C10.2384055 15.53552005 10.24052015 16.91333175 10.22460938 18.29077148 C10.23161865 19.0494754 10.23862793 19.80817932 10.24584961 20.58987427 C10.26334287 23.07852633 10.2518374 25.56602543 10.23828125 28.0546875 C10.24097896 29.79671953 10.24486369 31.53875008 10.24987793 33.28077698 C10.25576146 36.92471713 10.24724826 40.56826394 10.22851562 44.2121582 C10.20574356 48.86701298 10.21884505 53.52094422 10.24280548 58.17576504 C10.25730913 61.77133552 10.25263635 65.36668967 10.24229431 68.96226692 C10.23963874 70.67775649 10.24285536 72.39326612 10.25221252 74.10873222 C10.32369422 90.89748095 10.32369422 90.89748095 5.70703125 97.37109375 C1.80783246 100.6534977 -2.00966741 102.12157826 -7.23828125 101.81640625 C-11.15125932 100.96834636 -14.47769613 99.21133552 -17.29296875 96.37109375 C-20.7971634 90.08074189 -20.68561417 84.40212042 -20.5859375 77.3125 C-20.58169266 76.1682103 -20.57744781 75.02392059 -20.57307434 73.84495544 C-20.55634679 70.20759064 -20.5187044 66.57078973 -20.48046875 62.93359375 C-20.46541431 60.46029449 -20.45172723 57.9869865 -20.43945312 55.51367188 C-20.40646261 49.46595501 -20.35632188 43.41856468 -20.29296875 37.37109375 C-22.28474935 37.16560872 -24.27652995 36.9601237 -26.26831055 36.75463867 C-29.46642898 36.14879711 -31.08669214 34.70344331 -33.29296875 32.37109375 C-36.15624018 27.92808636 -36.84551794 24.62031109 -36.29296875 19.37109375 C-34.74077426 13.4727547 -32.32847326 11.06066206 -27.16015625 7.92578125 C-23.69371798 6.04615941 -20.21125325 4.22657575 -16.66796875 2.49609375 C-16.04696289 2.18542969 -15.42595703 1.87476563 -14.78613281 1.5546875 C-9.74696661 -0.80350357 -5.40398883 -1.48218433 0 0 Z " fill="#6BA7FE" transform="translate(305.29296875,137.62890625)"/>
<path d="M0 0 C0.62261719 0.40992188 1.24523437 0.81984375 1.88671875 1.2421875 C2.52222656 1.63664063 3.15773437 2.03109375 3.8125 2.4375 C7.21140697 5.67814301 8.47327022 9.16237419 8.9618988 13.7840271 C8.98255892 15.16365412 8.98708704 16.5435863 8.97827148 17.92333984 C8.98856636 19.06117668 8.98856636 19.06117668 8.99906921 20.22200012 C9.01728795 22.71590183 9.01350639 25.20917137 9.0078125 27.703125 C9.01237719 29.44658613 9.01768362 31.19004546 9.0236969 32.9335022 C9.03261872 36.58334676 9.03021612 40.23297241 9.02026367 43.8828125 C9.00878445 48.54550992 9.02897388 53.20744881 9.05818081 57.87004662 C9.07658514 61.46988679 9.07624179 65.0695467 9.07054329 68.66942215 C9.07039054 70.38771248 9.07639618 72.1060154 9.08883476 73.82426071 C9.19258041 90.5067185 9.19258041 90.5067185 4.57421875 97.1171875 C1.22748178 100.04299467 -2.59633574 100.98388376 -6.92578125 101.6796875 C-11.49721132 100.94499338 -15.10813384 99.39877353 -18.42578125 96.1171875 C-21.93321993 89.82969135 -21.81840228 84.14647954 -21.71875 77.05859375 C-21.71450516 75.91430405 -21.71026031 74.77001434 -21.70588684 73.59104919 C-21.68915929 69.95368439 -21.6515169 66.31688348 -21.61328125 62.6796875 C-21.59822681 60.20638824 -21.58453973 57.73308025 -21.57226562 55.25976562 C-21.53927511 49.21204876 -21.48913438 43.16465843 -21.42578125 37.1171875 C-23.41756185 36.91170247 -25.40934245 36.70621745 -27.40112305 36.50073242 C-30.59924148 35.89489086 -32.21950464 34.44953706 -34.42578125 32.1171875 C-37.28905268 27.67418011 -37.97833044 24.36640484 -37.42578125 19.1171875 C-35.87341388 13.21819149 -33.4607725 10.80367975 -28.2890625 7.671875 C-24.84127023 5.79981317 -21.38393265 3.97359795 -17.86328125 2.2421875 C-17.2506543 1.93152344 -16.63802734 1.62085938 -16.00683594 1.30078125 C-10.6399838 -1.22412417 -5.68835298 -2.07015745 0 0 Z " fill="#01E4EF" transform="translate(122.42578125,137.8828125)"/>
<path d="M0 0 C0 9.9 0 19.8 0 30 C-3.96 31.98 -3.96 31.98 -8 34 C-12.31880024 38.44682791 -11.44071666 44.61427335 -11.375 50.4375 C-11.38660156 51.46166016 -11.39820313 52.48582031 -11.41015625 53.54101562 C-11.4302391 61.26738136 -11.4302391 61.26738136 -8 68 C-5.36 69.32 -2.72 70.64 0 72 C0 81.9 0 91.8 0 102 C-10.63477806 102 -18.67017093 98.50866872 -27 92 C-27.61617187 91.52175781 -28.23234375 91.04351562 -28.8671875 90.55078125 C-36.42014837 83.88739133 -40.85904711 73.84275025 -42 64 C-42.25607211 59.2515401 -42.27644318 54.50469312 -42.3125 49.75 C-42.35600586 47.86087891 -42.35600586 47.86087891 -42.40039062 45.93359375 C-42.48211754 33.82543746 -39.45843122 24.5453402 -32 15 C-31.52175781 14.38382813 -31.04351562 13.76765625 -30.55078125 13.1328125 C-22.89705204 4.45730081 -11.25935283 0 0 0 Z " fill="#01E4EF" transform="translate(199,137)"/>
<path d="M0 0 C0.62519531 0.30808594 1.25039062 0.61617188 1.89453125 0.93359375 C2.52746094 1.22363281 3.16039062 1.51367188 3.8125 1.8125 C7.84630797 5.13103481 9.47352713 8.52496938 10.11897278 13.62797546 C10.32016639 17.73550823 10.3974335 21.82585603 10.4140625 25.9375 C10.42947551 27.46012303 10.44532643 28.98274169 10.46159363 30.50535583 C10.48996169 33.68685955 10.50145837 36.86793705 10.50317383 40.04956055 C10.50836821 44.11829199 10.5734811 48.1836868 10.65346241 52.25154209 C10.70553146 55.39244622 10.7167352 58.53254543 10.71668053 61.67384148 C10.7232269 63.1734165 10.7444347 64.67300477 10.78086281 66.17215157 C11.04093515 77.86950794 11.04093515 77.86950794 7.77716064 81.54356384 C5.48074073 83.0767234 3.20443917 84.20552218 0.70703125 85.37109375 C-0.67412074 86.41509183 -2.03083097 87.49313945 -3.34765625 88.6171875 C-3.981875 89.14376953 -4.61609375 89.67035156 -5.26953125 90.21289062 C-6.56236641 91.2995638 -7.85128787 92.39090637 -9.13671875 93.48632812 C-10.7957598 94.85691451 -12.53915272 96.12407588 -14.29296875 97.37109375 C-17.29296875 96.37109375 -17.29296875 96.37109375 -18.9621582 93.56225586 C-21.01007838 88.30012391 -20.66418293 82.87779859 -20.5859375 77.3125 C-20.58169266 76.1682103 -20.57744781 75.02392059 -20.57307434 73.84495544 C-20.55634679 70.20759064 -20.5187044 66.57078973 -20.48046875 62.93359375 C-20.46541431 60.46029449 -20.45172723 57.9869865 -20.43945312 55.51367188 C-20.40646261 49.46595501 -20.35632188 43.41856468 -20.29296875 37.37109375 C-22.28474935 37.16560872 -24.27652995 36.9601237 -26.26831055 36.75463867 C-29.46642898 36.14879711 -31.08669214 34.70344331 -33.29296875 32.37109375 C-36.15624018 27.92808636 -36.84551794 24.62031109 -36.29296875 19.37109375 C-34.74077426 13.4727547 -32.32847326 11.06066206 -27.16015625 7.92578125 C-23.69371798 6.04615941 -20.21125325 4.22657575 -16.66796875 2.49609375 C-16.04696289 2.18542969 -15.42595703 1.87476563 -14.78613281 1.5546875 C-9.74696661 -0.80350357 -5.40398883 -1.48218433 0 0 Z " fill="#6BA7FE" transform="translate(235.29296875,265.62890625)"/>
<path d="M0 0 C0.62519531 0.30808594 1.25039063 0.61617188 1.89453125 0.93359375 C2.52746094 1.22363281 3.16039062 1.51367188 3.8125 1.8125 C7.86592567 5.1471739 9.50434335 8.48440121 10.05717468 13.63035583 C10.1701644 17.73614625 10.1572506 21.82360122 10.09765625 25.9296875 C10.09018663 27.44425201 10.08449711 28.95882626 10.08050537 30.47340393 C10.06530547 34.44053294 10.02607374 38.40706689 9.98168945 42.3739624 C9.93337948 47.14385432 9.91517574 51.91394631 9.89187622 56.68401337 C9.8532179 63.91345276 9.77652716 71.14158906 9.70703125 78.37109375 C-0.19296875 78.37109375 -10.09296875 78.37109375 -20.29296875 78.37109375 C-20.29296875 64.84109375 -20.29296875 51.31109375 -20.29296875 37.37109375 C-22.93296875 37.04109375 -25.57296875 36.71109375 -28.29296875 36.37109375 C-32.56190779 33.80973033 -34.56193453 31.01755402 -36.29296875 26.37109375 C-36.85366333 21.23139345 -36.35189669 16.63775376 -33.29296875 12.37109375 C-28.51640499 8.01762888 -22.43294236 5.31161225 -16.66796875 2.49609375 C-16.04696289 2.18542969 -15.42595703 1.87476563 -14.78613281 1.5546875 C-9.74696661 -0.80350357 -5.40398883 -1.48218433 0 0 Z " fill="#6BA7FE" transform="translate(305.29296875,265.62890625)"/>
<path d="M0 0 C1.5626703 -0.00269845 3.12533895 -0.0065838 4.68800354 -0.01159668 C7.95533308 -0.01747696 11.22222366 -0.00897801 14.48950195 0.00976562 C18.66012056 0.03253589 22.82970826 0.01943581 27.00028896 -0.00452423 C30.22528222 -0.01903864 33.45003462 -0.01435026 36.67503548 -0.00401306 C38.21189562 -0.00136033 39.74877822 -0.00456396 41.28561211 -0.01393127 C56.35974264 -0.08565234 56.35974264 -0.08565234 63.06640625 4.53125 C66.35543822 8.4191429 67.81633996 12.2573857 67.51171875 17.4765625 C66.66365886 21.38954057 64.90664802 24.71597738 62.06640625 27.53125 C57.11464735 30.01394182 53.48435009 30.91051197 47.86523438 30.93530273 C47.18295273 30.94216599 46.50067108 30.94902924 45.79771423 30.95610046 C43.56414406 30.97425714 41.33128367 30.97054784 39.09765625 30.96484375 C37.53259048 30.96941042 35.96752671 30.97471743 34.40246582 30.98072815 C31.13102035 30.98963697 27.8598193 30.98726114 24.58837891 30.97729492 C20.40873169 30.96579868 16.22992855 30.98603736 12.05039215 31.01521206 C8.8211741 31.03360932 5.59215712 31.0332748 2.36289978 31.02757454 C0.82241124 31.0274218 -0.71809134 31.03342647 -2.25852966 31.04586601 C-17.18273994 31.14943353 -17.18273994 31.14943353 -22.93359375 26.53125 C-25.77255089 23.08038731 -26.81896899 19.34795139 -27.43359375 14.96875 C-26.6076457 9.29035714 -24.82547628 6.03768987 -20.33203125 2.4597168 C-14.21882385 -0.9324347 -6.79415579 -0.04134877 0 0 Z " fill="#61729B" transform="translate(111.93359375,79.46875)"/>
<path d="M0 0 C3.28529841 2.19019894 5.31186463 4.24657146 6.8125 7.875 C7.36718572 11.7205753 7.32600183 15.49645481 7.25 19.375 C7.25708984 20.39464844 7.26417969 21.41429687 7.27148438 22.46484375 C7.22478855 27.98931914 6.97276092 32.13847202 3.8125 36.875 C0.57203856 39.81166818 -2.12264935 40.77454239 -6.5 41.1875 C-10.94636282 40.81068959 -12.82698122 39.77726622 -16.1875 36.875 C-19.94693291 31.32068344 -19.66994566 25.83900314 -19.625 19.375 C-19.64498047 18.35535156 -19.66496094 17.33570313 -19.68554688 16.28515625 C-19.68156502 10.16106948 -19.2887614 6.52107841 -15.1875 1.875 C-10.35049215 -2.04689826 -5.76079882 -2.03322311 0 0 Z " fill="#EEF1FB" transform="translate(134.1875,296.125)"/>
<path d="M0 0 C4.51865076 2.27839142 6.28130884 4.44921451 8.1015625 9.30859375 C8.55060434 12.96246116 8.56601435 16.56839071 8.5390625 20.24609375 C8.5690332 21.69145508 8.5690332 21.69145508 8.59960938 23.16601562 C8.59533298 29.42238508 7.82508236 33.23106667 4.1015625 38.30859375 C-0.21577132 41.28275705 -3.70919826 41.95724865 -8.8984375 41.30859375 C-13.87918963 38.81821768 -15.93881895 36.4702403 -17.8984375 31.30859375 C-18.35295739 27.46837947 -18.36280049 23.67197972 -18.3359375 19.80859375 C-18.35591797 18.78894531 -18.37589844 17.76929688 -18.39648438 16.71875 C-18.39250252 10.59466323 -17.9996989 6.95467216 -13.8984375 2.30859375 C-9.61545651 -1.16409354 -5.26816842 -1.91865393 0 0 Z " fill="#D3D5F2" transform="translate(204.8984375,167.69140625)"/>
<path d="M0 0 C0 13.86 0 27.72 0 42 C-4.97226096 41.00554781 -6.50044023 40.40497708 -10 37 C-12.62681417 31.60195966 -12.36761511 26.45194904 -12.375 20.5625 C-12.39949219 19.53833984 -12.42398438 18.51417969 -12.44921875 17.45898438 C-12.47308298 11.31394561 -12.1475368 7.64797085 -8 3 C-5.01106771 0.81297638 -3.72055546 0 0 0 Z " fill="#EEF1FB" transform="translate(199,167)"/>
<path d="M0 0 C9.9 0 19.8 0 30 0 C29.05456228 5.6726263 28.5092006 7.73205333 25 12 C21.18543657 14.6008387 17.74881143 15.61583045 13.08984375 15.41015625 C9.08812578 14.62477235 5.97976769 12.74686631 3 10 C0.90335788 6.79543328 0 3.86490341 0 0 Z " fill="#EF8729" transform="translate(440,376)"/>
</svg>
